<svg xmlns="http://www.w3.org/2000/svg" xmlns:xlink="http://www.w3.org/1999/xlink" width="150" height="150" viewBox="0 0 150 150">
  <defs>
    <clipPath id="clip-Logo">
      <rect width="150" height="150"/>
    </clipPath>
  </defs>
  <g id="Logo" clip-path="url(#clip-Logo)">
    <g id="Group_76" data-name="Group 76" transform="translate(-116.721 -306.07)">
      <path id="_5fe37c0f8317b72c45a24a22_logo_noText" data-name="5fe37c0f8317b72c45a24a22_logo_noText" d="M100.736,0A20.764,20.764,0,0,0,80.055,20.705v3.156h0a60.6,60.6,0,0,0-8.863-2.24h0l-.458-.084c-.581-.094-1.167-.177-1.753-.256h0l-.547-.074c-.689-.084-1.384-.167-2.078-.231h0c-.551-.049-1.108-.089-1.669-.128h0c-1.3-.079-2.595-.138-3.91-.138-.985,0-1.97.03-2.984.079-.33,0-.655.044-.985.064l-.581.039-.635.044-.758.069c-.384.034-.763.089-1.142.133-.591.069-1.187.138-1.773.222l-.744.113c-.2.03-.384.069-.581.1-.492.089-1.034.177-1.546.276-.4.079-.808.167-1.206.256s-.911.2-1.359.305l-.458.113-.985.261c-.537.143-1.068.3-1.6.453-.384.113-.773.231-1.157.355-.192.059-.389.113-.581.177h-.064c-.32.1-.63.227-.945.335s-.739.256-1.108.394c-.547.2-1.088.419-1.63.64-.2.084-.4.158-.606.241l-.113.044-.286.123c-.611.261-1.216.542-1.822.822l-.744.345c-.355.172-.7.355-1.054.537l-.67.32c-.281.143-.561.281-.837.428l-.492.291c-.645.359-1.29.724-1.92,1.108L29,29.652c-.123.074-.241.158-.364.236l-.089.054c-.492.315-.985.63-1.477.985-.315.212-.62.433-.936.65s-.719.492-1.073.748h0c-.089.059-.172.128-.256.192-.32.236-.63.492-.945.714-.428.33-.852.66-1.27.985-.31.251-.615.492-.921.768l-.064.049c-.084.069-.172.138-.251.212-.305.256-.6.522-.9.783s-.66.556-.955.827c-.394.364-.783.739-1.167,1.113-.113.113-.231.217-.345.325l-.049.054c-.153.148-.3.3-.443.448-.394.394-.773.8-1.152,1.206-.256.276-.492.547-.763.822a9.418,9.418,0,0,0-.675.768l-.286.335-.207.241c-.217.256-.443.492-.655.773-.492.571-.921,1.152-1.369,1.743-.118.148-.236.3-.35.448q-.832,1.118-1.62,2.27l-.438.68c-.227.34-.448.684-.67,1.034l-.074.113-.33.527c-.187.305-.359.616-.542.921-.291.492-.586.985-.867,1.507-.162.3-.32.6-.492.9-.059.108-.118.217-.172.33q-.33.625-.65,1.27c-.172.355-.345.719-.492,1.083-.231.492-.453.985-.67,1.477,0,.059-.054.113-.079.167l-.034.079c-.123.291-.241.586-.364.876-.207.492-.4.985-.6,1.521-.143.379-.286.758-.423,1.137-.187.522-.359,1.049-.532,1.576-.123.379-.251.758-.364,1.137-.167.551-.325,1.113-.492,1.674-.1.359-.2.724-.3,1.088-.158.625-.3,1.251-.433,1.881-.069.31-.143.62-.207.931Q.918,70.733.716,72.175c-.059.394-.118.852-.167,1.339A60.594,60.594,0,0,0,71.4,141.17c.2-.1.384-.222.581-.325A55.695,55.695,0,1,0,5.423,58.265a58.3,58.3,0,1,1,67.31,82.653l-.832.167a60.413,60.413,0,0,0,19.228-7.12l.1-.054c.709-.414,1.4-.837,2.093-1.275l.2-.133q.985-.645,1.97-1.329l.207-.153c.66-.463,1.31-.936,1.945-1.428l.089-.069a61.193,61.193,0,0,0,8.981-8.509c.143-.172.3-.34.443-.492.394-.492.783-.95,1.162-1.438.192-.241.384-.492.571-.724.35-.453.689-.916,1.029-1.384l.611-.857c.31-.448.62-.906.921-1.364.212-.315.414-.635.615-.985.286-.448.566-.891.837-1.349.207-.35.4-.7.606-1.059.251-.443.492-.881.744-1.329s.414-.8.615-1.2.433-.837.635-1.265c.3-.625.581-1.261.857-1.9.222-.492.433-1.014.64-1.526s.443-1.088.645-1.64c.143-.374.266-.758.4-1.137.177-.492.359-1.029.522-1.546.128-.394.241-.793.355-1.187.153-.517.305-1.034.443-1.556.108-.4.207-.808.305-1.211.133-.532.256-1.059.369-1.6q.133-.606.251-1.211.158-.827.3-1.654c.064-.4.133-.8.187-1.2.084-.581.158-1.162.222-1.748.044-.384.094-.763.133-1.147.059-.65.1-1.3.148-1.97,0-.32.049-.645.064-.985.049-.985.079-1.97.079-2.954v-60.7A20.769,20.769,0,0,0,100.736,0ZM41.422,81.427a19.3,19.3,0,0,1,19.3-19.307h0A19.307,19.307,0,1,1,41.417,81.427Z" transform="translate(129.707 308.93)" fill="#fff" fill-rule="evenodd"/>
    </g>
  </g>
</svg>
