<svg xmlns="http://www.w3.org/2000/svg" xmlns:xlink="http://www.w3.org/1999/xlink" width="300" height="57" viewBox="0 0 300 57">
  <defs>
    <clipPath id="clip-Logo-text">
      <rect width="300" height="57"/>
    </clipPath>
  </defs>
  <g id="Logo-text" clip-path="url(#clip-Logo-text)">
    <path id="Path_1323" data-name="Path 1323" d="M-62.086-17.932v7.3H-83.2v-7.3Zm-16.322-8.4h9.725V6.357a4.361,4.361,0,0,0,.411,2.089A2.248,2.248,0,0,0-67.12,9.485a4.619,4.619,0,0,0,1.724.3,7.581,7.581,0,0,0,1.37-.126l1.05-.194,1.529,7.237q-.73.228-2.055.536a17.17,17.17,0,0,1-3.219.377,14.7,14.7,0,0,1-6.152-.936,8.6,8.6,0,0,1-4.1-3.333,10.19,10.19,0,0,1-1.438-5.707Zm22.645,43.465V-17.932h9.428v6.118h.365a9.113,9.113,0,0,1,3.219-4.942,8.5,8.5,0,0,1,5.2-1.678,14.71,14.71,0,0,1,1.575.091,11.092,11.092,0,0,1,1.484.251v8.629a12.705,12.705,0,0,0-1.895-.365,17.021,17.021,0,0,0-2.214-.16,7.791,7.791,0,0,0-3.824.925,6.87,6.87,0,0,0-2.648,2.568,7.314,7.314,0,0,0-.97,3.789V17.132Zm35.292.662a14.49,14.49,0,0,1-5.981-1.176,9.454,9.454,0,0,1-4.143-3.493,10.347,10.347,0,0,1-1.518-5.787A10.222,10.222,0,0,1-31.04,2.431a8.687,8.687,0,0,1,2.922-3.2,14.155,14.155,0,0,1,4.212-1.826,31.713,31.713,0,0,1,4.965-.867q3.059-.32,4.931-.6a6.887,6.887,0,0,0,2.717-.856,1.906,1.906,0,0,0,.845-1.689v-.137A4.219,4.219,0,0,0-11.807-10.1a5.662,5.662,0,0,0-3.847-1.187,6.853,6.853,0,0,0-4.178,1.153,5.411,5.411,0,0,0-2.055,2.888l-8.994-.73a12.3,12.3,0,0,1,2.694-5.536,13.066,13.066,0,0,1,5.193-3.607,19.885,19.885,0,0,1,7.385-1.267A22.569,22.569,0,0,1-10-17.7,14.777,14.777,0,0,1-5.233-15.58a10.386,10.386,0,0,1,3.3,3.687A11.2,11.2,0,0,1-.724-6.518v23.65H-9.947V12.27h-.274a9.752,9.752,0,0,1-2.26,2.888,10.193,10.193,0,0,1-3.4,1.94A13.849,13.849,0,0,1-20.47,17.794Zm2.785-6.711a8.086,8.086,0,0,0,3.789-.856,6.627,6.627,0,0,0,2.58-2.317A6,6,0,0,0-10.38,4.6V.879a4.972,4.972,0,0,1-1.244.536q-.788.24-1.769.434t-1.963.342q-.982.148-1.781.263a12.03,12.03,0,0,0-2.99.8,4.827,4.827,0,0,0-1.986,1.472,3.663,3.663,0,0,0-.708,2.294,3.488,3.488,0,0,0,1.45,3.025A6.175,6.175,0,0,0-17.685,11.083Zm40.36,6.734a17.829,17.829,0,0,1-9.257-2.294,15.26,15.26,0,0,1-5.935-6.38A20.568,20.568,0,0,1,5.417-.263,20.468,20.468,0,0,1,7.505-9.725a15.448,15.448,0,0,1,5.947-6.369,17.628,17.628,0,0,1,9.177-2.294,18.263,18.263,0,0,1,8.035,1.666,13.432,13.432,0,0,1,5.456,4.68,13.753,13.753,0,0,1,2.214,7.077H29.158A7.172,7.172,0,0,0,27.115-9.2a5.942,5.942,0,0,0-4.326-1.609,6.512,6.512,0,0,0-3.938,1.221,7.886,7.886,0,0,0-2.614,3.55A15.128,15.128,0,0,0,15.3-.4a15.624,15.624,0,0,0,.925,5.707A7.845,7.845,0,0,0,18.84,8.891a6.52,6.52,0,0,0,3.949,1.233,6.482,6.482,0,0,0,3-.685,5.856,5.856,0,0,0,2.214-2A7.609,7.609,0,0,0,29.158,4.28h9.177a14.372,14.372,0,0,1-2.18,7.065,13.29,13.29,0,0,1-5.376,4.76A17.924,17.924,0,0,1,22.675,17.817ZM57.51,17.7a13.127,13.127,0,0,1-7.225-2.066,14.064,14.064,0,0,1-5.113-6.1,23.286,23.286,0,0,1-1.883-9.9,22.96,22.96,0,0,1,1.94-10.033,13.98,13.98,0,0,1,5.171-6,13.218,13.218,0,0,1,7.088-2,10.893,10.893,0,0,1,4.919.993,9.793,9.793,0,0,1,3.2,2.465,12.892,12.892,0,0,1,1.86,2.888h.3V-29.62h9.7V17.132H67.874V11.517h-.411A12.5,12.5,0,0,1,65.534,14.4a9.719,9.719,0,0,1-3.219,2.363A11.158,11.158,0,0,1,57.51,17.7Zm3.082-7.739a6.226,6.226,0,0,0,3.984-1.29,8.142,8.142,0,0,0,2.511-3.618A15.423,15.423,0,0,0,67.966-.4,15.414,15.414,0,0,0,67.1-5.833a7.8,7.8,0,0,0-2.511-3.561,6.387,6.387,0,0,0-3.995-1.256,6.307,6.307,0,0,0-4.041,1.3,7.958,7.958,0,0,0-2.488,3.607A15.494,15.494,0,0,0,53.219-.4,15.671,15.671,0,0,0,54.075,5a8.142,8.142,0,0,0,2.488,3.652A6.224,6.224,0,0,0,60.592,9.964Zm24.837,7.168V-17.932h9.725V17.132Zm4.908-39.584a5.261,5.261,0,0,1-3.721-1.45,4.6,4.6,0,0,1-1.552-3.481,4.572,4.572,0,0,1,1.552-3.458,5.233,5.233,0,0,1,3.7-1.45,5.25,5.25,0,0,1,3.732,1.45,4.587,4.587,0,0,1,1.541,3.458A4.611,4.611,0,0,1,94.047-23.9,5.221,5.221,0,0,1,90.337-22.452ZM132.09-7.933l-8.9.548a4.682,4.682,0,0,0-.982-2.066,5.389,5.389,0,0,0-1.975-1.484,6.945,6.945,0,0,0-2.911-.559,7.191,7.191,0,0,0-3.812.947,2.858,2.858,0,0,0-1.552,2.523,2.7,2.7,0,0,0,1,2.123,7.972,7.972,0,0,0,3.447,1.393l6.346,1.278q5.113,1.05,7.625,3.379a7.952,7.952,0,0,1,2.511,6.118,9.585,9.585,0,0,1-2.02,6.049,13.2,13.2,0,0,1-5.524,4.052,20.974,20.974,0,0,1-8.07,1.45q-6.963,0-11.083-2.911a11.246,11.246,0,0,1-4.828-7.933l9.565-.5a4.873,4.873,0,0,0,2.1,3.23,8.91,8.91,0,0,0,8.389.114A3.013,3.013,0,0,0,123,7.248a2.715,2.715,0,0,0-1.119-2.18,8.148,8.148,0,0,0-3.379-1.313l-6.072-1.21Q107.3,1.518,104.8-1.016a8.814,8.814,0,0,1-2.5-6.46,9.407,9.407,0,0,1,1.838-5.821,11.662,11.662,0,0,1,5.182-3.767,21.234,21.234,0,0,1,7.841-1.324q6.643,0,10.467,2.808A10.857,10.857,0,0,1,132.09-7.933Zm22.782,25.75a17.829,17.829,0,0,1-9.257-2.294,15.26,15.26,0,0,1-5.935-6.38,20.569,20.569,0,0,1-2.066-9.405A20.468,20.468,0,0,1,139.7-9.725a15.448,15.448,0,0,1,5.947-6.369,17.628,17.628,0,0,1,9.177-2.294,18.263,18.263,0,0,1,8.036,1.666,13.432,13.432,0,0,1,5.456,4.68,13.753,13.753,0,0,1,2.214,7.077h-9.177A7.173,7.173,0,0,0,159.312-9.2a5.942,5.942,0,0,0-4.326-1.609,6.512,6.512,0,0,0-3.938,1.221,7.886,7.886,0,0,0-2.614,3.55A15.128,15.128,0,0,0,147.5-.4a15.624,15.624,0,0,0,.925,5.707,7.845,7.845,0,0,0,2.614,3.584,6.52,6.52,0,0,0,3.949,1.233,6.482,6.482,0,0,0,3-.685,5.856,5.856,0,0,0,2.214-2,7.609,7.609,0,0,0,1.153-3.162h9.177a14.373,14.373,0,0,1-2.18,7.065,13.29,13.29,0,0,1-5.376,4.76A17.925,17.925,0,0,1,154.872,17.817Z" transform="translate(89.279 34.29)" fill="#fff"/>
  </g>
</svg>
